HIERARCHY
ROOT ui
{
	 OFFSET 0 0 0
	 CHANNELS 3 XPosition YPosition Z Position
	 EndSite
	 {
	 OFFSET 0 -1 0
	 }
}
ROOT li
{
	 OFFSET 0 0 0
	 CHANNELS 3 XPosition YPosition Z Position
	 EndSite
	 {
	 OFFSET 0 -1 0
	 }
}
ROOT ul
{
	 OFFSET 0 0 0
	 CHANNELS 3 XPosition YPosition Z Position
	 EndSite
	 {
	 OFFSET 0 -1 0
	 }
}
ROOT ll
{
	 OFFSET 0 0 0
	 CHANNELS 3 XPosition YPosition Z Position
	 EndSite
	 {
	 OFFSET 0 -1 0
	 }
}
ROOT tt
{
	 OFFSET 0 0 0
	 CHANNELS 3 XPosition YPosition Z Position
	 EndSite
	 {
	 OFFSET 0 -1 0
	 }
}
ROOT tb
{
	 OFFSET 0 0 0
	 CHANNELS 3 XPosition YPosition Z Position
	 EndSite
	 {
	 OFFSET 0 -1 0
	 }
}
ROOT td
{
	 OFFSET 0 0 0
	 CHANNELS 3 XPosition YPosition Z Position
	 EndSite
	 {
	 OFFSET 0 -1 0
	 }
}
ROOT v
{
	 OFFSET 0 0 0
	 CHANNELS 3 XPosition YPosition Z Position
	 EndSite
	 {
	 OFFSET 0 -1 0
	 }
}
ROOT bn
{
	 OFFSET 0 0 0
	 CHANNELS 3 XPosition YPosition Z Position
	 EndSite
	 {
	 OFFSET 0 -1 0
	 }
}
MOTION
Frames: 27
Frame Time: 0.002
-0.011355697631835937	-2.169409990310669E-4	0		0.44117166137695313	-2.470672119140625	0		-0.96522900390625	0.15392477416992187	0		-0.76364013671875	-2.574659912109375	0		1.4726063232421875	-0.9463472290039062	0		3.085701904296875	-0.2713984069824219	0		4.484421875	-0.06235784912109375	0		5.5736103515625	0.10799630737304687	0		-0.1489117431640625	5.939978515625	0		
0.0013161720037460328	0.008997810363769532	0		0.44671929931640625	-2.466420654296875	0		-0.9536343994140625	0.15218089294433593	0		-0.7201273193359375	-2.574651611328125	0		1.477192626953125	-0.9441243286132812	0		3.105514404296875	-0.24234574890136718	0		4.49007470703125	-0.056241432189941404	0		5.583458984375	0.14003659057617188	0		-0.13103115844726562	5.94916064453125	0		
0.0058177499771118165	0.011278990745544434	0		0.45215200805664063	-2.462162109375	0		-0.9481204223632812	0.15548687744140624	0		-0.75168212890625	-2.56807421875	0		1.48166943359375	-0.9408932495117187	0		3.08191015625	-0.2529580078125	0		4.50150341796875	-0.06415824890136719	0		5.57682958984375	0.12421207427978516	0		-0.13033560180664064	5.9504765625	0		
0.004154770851135254	0.007620960235595703	0		0.49340023803710936	-2.46716064453125	0		-0.8807504272460938	0.15533627319335938	0		-0.7174598388671874	-2.575980712890625	0		1.479968017578125	-0.9455989379882812	0		3.08516259765625	-0.26675311279296876	0		4.492873046875	-0.06390216827392578	0		5.57819287109375	0.12335111999511719	0		-0.14485929870605468	5.939921875	0		
0.0013627970218658446	0.00299265193939209	0		0.439602783203125	-2.462415771484375	0		-0.9595357055664062	0.15131365966796875	0		-0.7183154907226562	-2.578602294921875	0		1.478154541015625	-0.9492799072265625	0		3.091339111328125	-0.27454385375976564	0		4.51003759765625	-0.07481341552734375	0		5.5794345703125	0.12252220153808593	0		-0.14343997192382812	5.939267578125	0		
0.002477123975753784	0.0023605690002441405	0		0.5055456237792969	-2.476556640625	0		-0.9543866577148438	0.1546782684326172	0		-0.7192899169921875	-2.581198486328125	0		1.4792418212890626	-0.9499540405273438	0		3.09855224609375	-0.26131024169921874	0		4.51115380859375	-0.07556825256347656	0		5.5854833984375	0.11269324493408203	0		-0.12608055877685548	5.9485166015625	0		
-0.0505257568359375	0.003172929048538208	0		0.45252352905273435	-2.4697578125	0		-0.953394775390625	0.1541016845703125	0		-0.7143394775390625	-2.57781201171875	0		1.4832275390625	-0.9476177368164063	0		3.09746435546875	-0.27097784423828125	0		4.50219775390625	-0.06920687866210938	0		5.59052783203125	0.1189137191772461	0		-0.12493624877929688	5.94791845703125	0		
0.008357145309448243	0.0051593599319458006	0		0.5133238525390625	-2.470798828125	0		-0.9474990234375	0.15751754760742187	0		-0.711524658203125	-2.576378662109375	0		1.487096923828125	-0.9442451171875	0		3.116318603515625	-0.27175927734375	0		4.5130068359375	-0.07695553588867188	0		5.58240771484375	0.12027999877929688	0		-0.12393177032470704	5.94735302734375	0		
0.009096391677856445	0.004625844955444336	0		0.45401092529296877	-2.47088037109375	0		-0.9517871704101563	0.15304354858398436	0		-0.7148724365234375	-2.58086572265625	0		1.4817615966796875	-0.9517643432617188	0		3.104998291015625	-0.2792677307128906	0		4.518685546875	-0.08562118530273438	0		5.5831494140625	0.1196250228881836	0		-0.13913970947265625	5.9369462890625	0		
0.005688161849975586	1.594810038805008E-4	0		0.5085292053222656	-2.478803955078125	0		-0.9551924438476562	0.14859603881835937	0		-0.71631591796875	-2.583333251953125	0		1.482365478515625	-0.9522906494140625	0		3.099669677734375	-0.2727796630859375	0		4.50531005859375	-0.08609484100341797	0		5.5837744140625	0.11901828002929687	0		-0.13840077209472657	5.93645166015625	0		
0.0061986808776855465	-3.0165401101112365E-4	0		0.4530367431640625	-2.47383984375	0		-0.9506484375	0.15212060546875	0		-0.7178661499023438	-2.585766357421875	0		1.4798360595703124	-0.9557542724609375	0		3.094059326171875	-0.28824801635742187	0		4.496751953125	-0.09556124877929688	0		5.589216796875	0.1094209442138672	0		-0.12171698760986328	5.94486865234375	0		
0.006600133895874024	-7.26809024810791E-4	0		0.45541531372070315	-2.47228759765625	0		-0.940252685546875	0.15063262939453126	0		-0.786417236328125	-2.57464453125	0		1.4893001708984375	-0.9462725219726562	0		3.1415791015625	-0.2730866394042969	0		4.50220849609375	-0.08909198760986328	0		5.597736328125	0.12384662628173829	0		-0.12122335052490234	5.9444453125	0		
-0.040041748046875	0.007249138832092285	0		0.4597148742675781	-2.467714599609375	0		-0.9449171752929687	0.15529475402832033	0		-0.7091835327148438	-2.578622314453125	0		1.4895816650390625	-0.9466822509765624	0		3.094746826171875	-0.28915264892578124	0		4.51157373046875	-0.08061033630371094	0		5.584986328125	0.11748227691650391	0		-0.13691748046875	5.9351826171875	0		
0.0070853719711303715	-0.001470950961112976	0		0.4748836669921875	-2.46719140625	0		-0.9497554931640625	0.1509905548095703	0		-0.7609750366210938	-2.5725634765625	0		1.4837069091796875	-0.9540075073242188	0		3.09493408203125	-0.28954400634765626	0		4.512640625	-0.09702346801757812	0		5.5851787109375	0.1170613021850586	0		-0.13665605163574218	5.93482958984375	0		
-0.043787864685058596	0.002605935096740723	0		0.47292886352539065	-2.470501708984375	0		-0.9496599731445312	0.15067945861816406	0		-0.7150026245117187	-2.585235107421875	0		1.483791015625	-0.95434375	0		3.10500927734375	-0.29197479248046876	0		4.51273486328125	-0.09738885498046874	0		5.58121923828125	0.1097142105102539	0		-0.1365008239746094	5.93451025390625	0		
0.007187788963317871	-0.0020809800624847414	0		0.45387701416015624	-2.475646240234375	0		-0.9496502075195312	0.15039883422851563	0		-0.7170325927734374	-2.587501953125	0		1.4807677001953126	-0.957622314453125	0		3.10709326171875	-0.28230712890625	0		4.508736328125	-0.0986846160888672	0		5.59426708984375	0.1142742691040039	0		-0.12135455322265624	5.9451044921875	0		
0.00712559700012207	-0.002339940071105957	0		0.4558121337890625	-2.473924072265625	0		-0.9437505493164062	0.14510018920898438	0		-0.711067138671875	-2.581802734375	0		1.4867452392578124	-0.951939208984375	0		3.1198798828125	-0.3016900634765625	0		4.522673828125	-0.0990848388671875	0		5.5852216796875	0.11604434204101563	0		-0.121372802734375	5.9448466796875	0		
0.014063608169555665	0.004374512195587158	0		0.4597196655273437	-2.46918896484375	0		-0.9447957153320312	0.15388291931152343	0		-0.7111992797851563	-2.582029052734375	0		1.4866229248046876	-0.9521787109375	0		3.10887939453125	-0.2868537902832031	0		4.50855810546875	-0.09923188781738282	0		5.58510595703125	0.11578010559082032	0		-0.12145344543457032	5.94461669921875	0		
0.006852952003479004	-0.0027742500305175783	0		0.5094561767578125	-2.481785888671875	0		-0.9499822387695313	0.14972303771972656	0		-0.7153989868164062	-2.58619775390625	0		1.4834388427734375	-0.9553660278320313	0		3.11960400390625	-0.3021581726074219	0		4.51734716796875	-0.10652664947509766	0		5.5939501953125	0.11547897338867187	0		-0.13666653442382812	5.93353173828125	0		
0.01070089054107666	0.0010156430006027222	0		0.444367431640625	-2.468457763671875	0		-0.9501649169921875	0.14954798889160156	0		-0.7275446166992188	-2.58027978515625	0		1.478197265625	-0.9625108642578125	0		3.106388671875	-0.30624655151367186	0		4.50909375	-0.11565855407714844	0		5.584767578125	0.11534982299804687	0		-0.13781961059570313	5.934361328125	0		
0.006469152927398682	-0.0031081089973449706	0		0.5070404357910157	-2.484107421875	0		-0.954396240234375	0.14542694091796876	0		-0.7198309936523437	-2.590495361328125	0		1.480025390625	-0.95868603515625	0		3.1211162109375	-0.3155278015136719	0		4.5129482421875	-0.10885748291015625	0		5.59442626953125	0.09710104370117187	0		-0.12093336486816406	5.94307275390625	0		
0.01029033374786377	7.271469831466675E-4	0		0.4548976135253906	-2.474834228515625	0		-0.9405829467773438	0.14818574523925782	0		-0.7119837646484375	-2.582690185546875	0		1.4858602294921874	-0.952869384765625	0		3.123046630859375	-0.2976834716796875	0		4.51779296875	-0.1020386962890625	0		5.593341796875	0.11296405029296876	0		-0.12113946533203125	5.94193994140625	0		
0.013099663734436036	0.0035908999443054197	0		0.5146785278320313	-2.47541796875	0		-0.9407968139648437	0.14807431030273438	0		-0.7101854858398438	-2.580817626953125	0		1.4856448974609375	-0.95298388671875	0		3.11474609375	-0.3087369689941406	0		4.50846923828125	-0.1160857696533203	0		5.5841435546875	0.11491487884521484	0		-0.1233224868774414	5.94484326171875	0		
0.00986104679107666	5.210800170898438E-4	0		0.44351083374023437	-2.468955078125	0		-0.9510037841796875	0.1490599365234375	0		-0.7184649658203125	-2.58884765625	0		1.4793822021484375	-0.9590311279296875	0		3.11453076171875	-0.30883261108398435	0		4.50825439453125	-0.11618224334716797	0		5.5839287109375	0.11481748962402344	0		-0.1376271209716797	5.93285986328125	0		
0.00964498805999756	4.450350105762482E-4	0		0.5081900024414062	-2.48254052734375	0		-0.9512197875976562	0.14898422241210937	0		-0.7186819458007813	-2.58892333984375	0		1.477134521484375	-0.9630919189453125	0		3.116212646484375	-0.32192498779296874	0		4.5080380859375	-0.11625975799560546	0		5.57965771484375	0.10777112579345703	0		-0.13883328247070312	5.93379150390625	0		
-0.048595218658447265	-0.002160806894302368	0		0.45201214599609374	-2.477162353515625	0		-0.951438232421875	0.148923583984375	0		-0.7209163208007813	-2.59096826171875	0		1.4769158935546876	-0.96315283203125	0		3.105112060546875	-0.30690032958984376	0		4.51187451171875	-0.10935261535644532	0		5.583494140625	0.1146781005859375	0		-0.12297309112548828	5.94360546875	0		
0.009205287933349609	3.367460072040558E-4	0		0.45179086303710936	-2.4772099609375	0		-0.9466282348632813	0.15283673095703126	0		-0.7950804443359375	-2.583435791015625	0		1.4817493896484375	-0.9562398071289062	0		3.11981982421875	-0.31606527709960935	0		4.5116533203125	-0.10940025329589843	0		5.58327294921875	0.11463044738769532	0		-0.12418633270263672	5.9445654296875	0		
